<mxfile host="app.diagrams.net" modified="2022-09-24T14:45:07.576Z" agent="5.0 (Windows NT 10.0; Win64; x64) AppleWebKit/537.36 (KHTML, like Gecko) Chrome/105.0.0.0 Safari/537.36" etag="miXzBgyvSRtU8UbQtBER" version="16.6.4" type="github">
  <diagram id="R2lEEEUBdFMjLlhIrx00" name="Page-1">
    <mxGraphModel dx="3187" dy="1069" grid="1" gridSize="10" guides="1" tooltips="1" connect="1" arrows="1" fold="1" page="1" pageScale="1" pageWidth="1200" pageHeight="1920" math="0" shadow="0" extFonts="Permanent Marker^https://fonts.googleapis.com/css?family=Permanent+Marker">
      <root>
        <mxCell id="0" />
        <mxCell id="1" parent="0" />
        <mxCell id="FPomORRN2Fqm5yga2dBl-1" value="&lt;font style=&quot;font-size: 29px&quot;&gt;Munkahely&lt;/font&gt;" style="rounded=0;whiteSpace=wrap;html=1;" vertex="1" parent="1">
          <mxGeometry x="-160" y="950" width="240" height="160" as="geometry" />
        </mxCell>
        <mxCell id="FPomORRN2Fqm5yga2dBl-7" value="" style="endArrow=none;html=1;rounded=0;fontSize=29;exitX=0.5;exitY=0;exitDx=0;exitDy=0;entryX=0.5;entryY=1;entryDx=0;entryDy=0;" edge="1" parent="1" source="FPomORRN2Fqm5yga2dBl-1" target="FPomORRN2Fqm5yga2dBl-8">
          <mxGeometry relative="1" as="geometry">
            <mxPoint x="-90" y="920" as="sourcePoint" />
            <mxPoint x="-40" y="790" as="targetPoint" />
          </mxGeometry>
        </mxCell>
        <mxCell id="FPomORRN2Fqm5yga2dBl-8" value="Helyiségek" style="whiteSpace=wrap;html=1;align=center;fontSize=29;" vertex="1" parent="1">
          <mxGeometry x="-165" y="690" width="250" height="110" as="geometry" />
        </mxCell>
        <mxCell id="FPomORRN2Fqm5yga2dBl-11" value="" style="endArrow=none;html=1;rounded=0;fontSize=29;entryX=0.5;entryY=0;entryDx=0;entryDy=0;exitX=0.5;exitY=1;exitDx=0;exitDy=0;" edge="1" parent="1" source="FPomORRN2Fqm5yga2dBl-13" target="FPomORRN2Fqm5yga2dBl-8">
          <mxGeometry relative="1" as="geometry">
            <mxPoint x="-45.000000000000455" y="380" as="sourcePoint" />
            <mxPoint x="-20" y="440" as="targetPoint" />
          </mxGeometry>
        </mxCell>
        <mxCell id="FPomORRN2Fqm5yga2dBl-13" value="hId" style="ellipse;whiteSpace=wrap;html=1;align=center;fontStyle=4;fontSize=29;" vertex="1" parent="1">
          <mxGeometry x="-90" y="560" width="100" height="40" as="geometry" />
        </mxCell>
        <mxCell id="FPomORRN2Fqm5yga2dBl-15" value="férőhely" style="ellipse;whiteSpace=wrap;html=1;align=center;fontSize=29;" vertex="1" parent="1">
          <mxGeometry x="140" y="560" width="120" height="40" as="geometry" />
        </mxCell>
        <mxCell id="FPomORRN2Fqm5yga2dBl-16" value="" style="endArrow=none;html=1;rounded=0;fontSize=29;exitX=1;exitY=0;exitDx=0;exitDy=0;entryX=0.5;entryY=1;entryDx=0;entryDy=0;" edge="1" parent="1" source="FPomORRN2Fqm5yga2dBl-8" target="FPomORRN2Fqm5yga2dBl-15">
          <mxGeometry relative="1" as="geometry">
            <mxPoint x="100" y="490" as="sourcePoint" />
            <mxPoint x="200" y="490" as="targetPoint" />
            <Array as="points">
              <mxPoint x="200" y="690" />
            </Array>
          </mxGeometry>
        </mxCell>
        <mxCell id="FPomORRN2Fqm5yga2dBl-18" value="Dolgozó" style="whiteSpace=wrap;html=1;align=center;fontSize=29;" vertex="1" parent="1">
          <mxGeometry x="-640" y="695" width="220" height="100" as="geometry" />
        </mxCell>
        <mxCell id="FPomORRN2Fqm5yga2dBl-20" value="itt dolgozik" style="shape=rhombus;double=1;perimeter=rhombusPerimeter;whiteSpace=wrap;html=1;align=center;fontSize=29;" vertex="1" parent="1">
          <mxGeometry x="-460" y="870" width="210" height="95" as="geometry" />
        </mxCell>
        <mxCell id="FPomORRN2Fqm5yga2dBl-21" value="alapterület" style="ellipse;whiteSpace=wrap;html=1;align=center;fontSize=29;" vertex="1" parent="1">
          <mxGeometry x="180" y="720" width="210" height="50" as="geometry" />
        </mxCell>
        <mxCell id="FPomORRN2Fqm5yga2dBl-26" value="" style="endArrow=none;html=1;rounded=0;fontSize=29;entryX=0;entryY=0.5;entryDx=0;entryDy=0;exitX=1;exitY=0.5;exitDx=0;exitDy=0;" edge="1" parent="1" source="FPomORRN2Fqm5yga2dBl-8" target="FPomORRN2Fqm5yga2dBl-21">
          <mxGeometry relative="1" as="geometry">
            <mxPoint x="20" y="620" as="sourcePoint" />
            <mxPoint x="180" y="620" as="targetPoint" />
            <Array as="points" />
          </mxGeometry>
        </mxCell>
        <mxCell id="FPomORRN2Fqm5yga2dBl-32" value="" style="endArrow=classic;html=1;rounded=0;fontSize=29;exitX=0.5;exitY=1;exitDx=0;exitDy=0;" edge="1" parent="1" source="FPomORRN2Fqm5yga2dBl-20">
          <mxGeometry width="50" height="50" relative="1" as="geometry">
            <mxPoint x="-410" y="1180" as="sourcePoint" />
            <mxPoint x="-160" y="1040" as="targetPoint" />
            <Array as="points">
              <mxPoint x="-355" y="1040" />
            </Array>
          </mxGeometry>
        </mxCell>
        <mxCell id="FPomORRN2Fqm5yga2dBl-35" value="" style="endArrow=none;html=1;rounded=0;fontSize=29;entryX=0.5;entryY=0;entryDx=0;entryDy=0;" edge="1" parent="1" target="FPomORRN2Fqm5yga2dBl-20">
          <mxGeometry relative="1" as="geometry">
            <mxPoint x="-420" y="790" as="sourcePoint" />
            <mxPoint x="-270" y="790" as="targetPoint" />
            <Array as="points">
              <mxPoint x="-355" y="790" />
            </Array>
          </mxGeometry>
        </mxCell>
        <mxCell id="FPomORRN2Fqm5yga2dBl-37" value="Név" style="ellipse;whiteSpace=wrap;html=1;align=center;fontSize=29;" vertex="1" parent="1">
          <mxGeometry x="-610" y="560" width="160" height="70" as="geometry" />
        </mxCell>
        <mxCell id="FPomORRN2Fqm5yga2dBl-38" value="" style="endArrow=none;html=1;rounded=0;fontSize=29;entryX=0.5;entryY=0;entryDx=0;entryDy=0;exitX=0.5;exitY=1;exitDx=0;exitDy=0;" edge="1" parent="1" source="FPomORRN2Fqm5yga2dBl-37" target="FPomORRN2Fqm5yga2dBl-18">
          <mxGeometry relative="1" as="geometry">
            <mxPoint x="-530" y="630" as="sourcePoint" />
            <mxPoint x="-370" y="630" as="targetPoint" />
          </mxGeometry>
        </mxCell>
        <mxCell id="FPomORRN2Fqm5yga2dBl-39" value="Keresznév" style="ellipse;whiteSpace=wrap;html=1;fontSize=29;" vertex="1" parent="1">
          <mxGeometry x="-460" y="470" width="160" height="80" as="geometry" />
        </mxCell>
        <mxCell id="FPomORRN2Fqm5yga2dBl-41" value="" style="endArrow=none;html=1;rounded=0;fontSize=29;exitX=1;exitY=0.5;exitDx=0;exitDy=0;entryX=0.5;entryY=1;entryDx=0;entryDy=0;" edge="1" parent="1" source="FPomORRN2Fqm5yga2dBl-37" target="FPomORRN2Fqm5yga2dBl-39">
          <mxGeometry relative="1" as="geometry">
            <mxPoint x="-370" y="590" as="sourcePoint" />
            <mxPoint x="-210" y="590" as="targetPoint" />
            <Array as="points">
              <mxPoint x="-380" y="595" />
            </Array>
          </mxGeometry>
        </mxCell>
      </root>
    </mxGraphModel>
  </diagram>
</mxfile>
